<mxfile host="app.diagrams.net" modified="2023-07-04T01:37:48.355Z" agent="Mozilla/5.0 (Windows NT 10.0; Win64; x64) AppleWebKit/537.36 (KHTML, like Gecko) Chrome/114.0.0.0 Safari/537.36" etag="yI-ZfnBI4XkJt4bLW3EG" version="21.5.2" type="device">
  <diagram name="Page-1" id="ZOZRtb-n12Znl-ddX9vv">
    <mxGraphModel dx="1050" dy="581" grid="1" gridSize="10" guides="1" tooltips="1" connect="1" arrows="1" fold="1" page="1" pageScale="1" pageWidth="850" pageHeight="1100" math="0" shadow="0">
      <root>
        <mxCell id="0" />
        <mxCell id="1" parent="0" />
        <mxCell id="22c5GUp7OJOf8miqu3Gs-8" style="edgeStyle=orthogonalEdgeStyle;rounded=0;orthogonalLoop=1;jettySize=auto;html=1;" edge="1" parent="1" source="22c5GUp7OJOf8miqu3Gs-1" target="22c5GUp7OJOf8miqu3Gs-3">
          <mxGeometry relative="1" as="geometry" />
        </mxCell>
        <mxCell id="22c5GUp7OJOf8miqu3Gs-1" value="@mouseDown" style="rounded=0;whiteSpace=wrap;html=1;" vertex="1" parent="1">
          <mxGeometry x="150" y="200" width="120" height="40" as="geometry" />
        </mxCell>
        <mxCell id="22c5GUp7OJOf8miqu3Gs-9" style="edgeStyle=orthogonalEdgeStyle;rounded=0;orthogonalLoop=1;jettySize=auto;html=1;" edge="1" parent="1" source="22c5GUp7OJOf8miqu3Gs-3" target="22c5GUp7OJOf8miqu3Gs-4">
          <mxGeometry relative="1" as="geometry" />
        </mxCell>
        <mxCell id="22c5GUp7OJOf8miqu3Gs-3" value="get the event co-ordinates" style="rounded=0;whiteSpace=wrap;html=1;" vertex="1" parent="1">
          <mxGeometry x="150" y="280" width="120" height="40" as="geometry" />
        </mxCell>
        <mxCell id="22c5GUp7OJOf8miqu3Gs-10" style="edgeStyle=orthogonalEdgeStyle;rounded=0;orthogonalLoop=1;jettySize=auto;html=1;entryX=0;entryY=0.5;entryDx=0;entryDy=0;" edge="1" parent="1" source="22c5GUp7OJOf8miqu3Gs-4" target="22c5GUp7OJOf8miqu3Gs-5">
          <mxGeometry relative="1" as="geometry" />
        </mxCell>
        <mxCell id="22c5GUp7OJOf8miqu3Gs-4" value="draw a tag" style="rounded=0;whiteSpace=wrap;html=1;" vertex="1" parent="1">
          <mxGeometry x="320" y="280" width="120" height="40" as="geometry" />
        </mxCell>
        <mxCell id="22c5GUp7OJOf8miqu3Gs-11" value="" style="edgeStyle=orthogonalEdgeStyle;rounded=0;orthogonalLoop=1;jettySize=auto;html=1;" edge="1" parent="1" source="22c5GUp7OJOf8miqu3Gs-5" target="22c5GUp7OJOf8miqu3Gs-6">
          <mxGeometry relative="1" as="geometry" />
        </mxCell>
        <mxCell id="22c5GUp7OJOf8miqu3Gs-5" value="@mouseUp" style="rounded=0;whiteSpace=wrap;html=1;" vertex="1" parent="1">
          <mxGeometry x="480" y="280" width="120" height="40" as="geometry" />
        </mxCell>
        <mxCell id="22c5GUp7OJOf8miqu3Gs-12" style="edgeStyle=orthogonalEdgeStyle;rounded=0;orthogonalLoop=1;jettySize=auto;html=1;entryX=1;entryY=0.5;entryDx=0;entryDy=0;" edge="1" parent="1" source="22c5GUp7OJOf8miqu3Gs-6" target="22c5GUp7OJOf8miqu3Gs-7">
          <mxGeometry relative="1" as="geometry" />
        </mxCell>
        <mxCell id="22c5GUp7OJOf8miqu3Gs-6" value="Save the x,y and width, height of the tag" style="rounded=0;whiteSpace=wrap;html=1;" vertex="1" parent="1">
          <mxGeometry x="450" y="360" width="180" height="40" as="geometry" />
        </mxCell>
        <mxCell id="22c5GUp7OJOf8miqu3Gs-7" value="ask user to name the tag" style="rounded=0;whiteSpace=wrap;html=1;" vertex="1" parent="1">
          <mxGeometry x="200" y="360" width="180" height="40" as="geometry" />
        </mxCell>
        <mxCell id="22c5GUp7OJOf8miqu3Gs-13" value="Creating a tag on mouse event" style="text;html=1;align=center;verticalAlign=middle;resizable=0;points=[];autosize=1;strokeColor=#6c8ebf;fillColor=#dae8fc;" vertex="1" parent="1">
          <mxGeometry x="310" y="50" width="190" height="30" as="geometry" />
        </mxCell>
      </root>
    </mxGraphModel>
  </diagram>
</mxfile>
